<?xml version="1.0" encoding="UTF-8" standalone="no"?>
<!-- Created with Inkscape (http://www.inkscape.org/) -->

<svg
   xmlns:dc="http://purl.org/dc/elements/1.1/"
   xmlns:cc="http://creativecommons.org/ns#"
   xmlns:rdf="http://www.w3.org/1999/02/22-rdf-syntax-ns#"
   xmlns:svg="http://www.w3.org/2000/svg"
   xmlns="http://www.w3.org/2000/svg"
   xmlns:sodipodi="http://sodipodi.sourceforge.net/DTD/sodipodi-0.dtd"
   xmlns:inkscape="http://www.inkscape.org/namespaces/inkscape"
   width="1920"
   height="1080"
   id="svg3320"
   version="1.1"
   inkscape:version="0.92.5 (2060ec1f9f, 2020-04-08)"
   sodipodi:docname="splash.svg">
  <defs
     id="defs3322">
    <linearGradient
       id="linearGradient5012">
      <stop
         id="stop5014"
         offset="0"
         style="stop-color:#fdf188;stop-opacity:1;" />
      <stop
         id="stop5016"
         offset="1"
         style="stop-color:#d3bc00;stop-opacity:1;" />
    </linearGradient>
    <linearGradient
       id="linearGradient8543">
      <stop
         id="stop8545"
         offset="0"
         style="stop-color:#fffef5;stop-opacity:0.94117647;" />
      <stop
         id="stop8547"
         offset="1"
         style="stop-color:#fce94f;stop-opacity:0;" />
    </linearGradient>
    <linearGradient
       id="linearGradient11202">
      <stop
         id="stop11204"
         offset="0"
         style="stop-color:#c4a000;stop-opacity:1;" />
      <stop
         id="stop11206"
         offset="1"
         style="stop-color:#c4a000;stop-opacity:0;" />
    </linearGradient>
    <linearGradient
       id="linearGradient18284">
      <stop
         id="stop18286"
         offset="0"
         style="stop-color:#000000;stop-opacity:1;" />
      <stop
         style="stop-color:#000000;stop-opacity:1;"
         offset="0.5"
         id="stop20913" />
      <stop
         style="stop-color:#000000;stop-opacity:0;"
         offset="1"
         id="stop19165" />
    </linearGradient>
    <inkscape:perspective
       id="perspective47"
       inkscape:persp3d-origin="24 : 16 : 1"
       inkscape:vp_z="48 : 24 : 1"
       inkscape:vp_y="0 : 1000 : 0"
       inkscape:vp_x="0 : 24 : 1"
       sodipodi:type="inkscape:persp3d" />
    <filter
       style="color-interpolation-filters:sRGB"
       inkscape:label="Drop Shadow"
       id="filter1146">
      <feFlood
         flood-opacity="1"
         flood-color="rgb(255,255,255)"
         result="flood"
         id="feFlood1136" />
      <feComposite
         in="flood"
         in2="SourceGraphic"
         operator="in"
         result="composite1"
         id="feComposite1138" />
      <feGaussianBlur
         in="composite1"
         stdDeviation="1"
         result="blur"
         id="feGaussianBlur1140" />
      <feOffset
         dx="0"
         dy="0"
         result="offset"
         id="feOffset1142" />
      <feComposite
         in="SourceGraphic"
         in2="offset"
         operator="over"
         result="composite2"
         id="feComposite1144" />
    </filter>
  </defs>
  <sodipodi:namedview
     id="base"
     pagecolor="#ffffff"
     bordercolor="#666666"
     borderopacity="1.0"
     inkscape:pageopacity="0.0"
     inkscape:pageshadow="2"
     inkscape:zoom="0.5"
     inkscape:cx="1002.5144"
     inkscape:cy="588.68494"
     inkscape:document-units="px"
     inkscape:current-layer="layer1"
     showgrid="false"
     inkscape:window-width="1920"
     inkscape:window-height="1053"
     inkscape:window-x="0"
     inkscape:window-y="27"
     inkscape:window-maximized="1" />
  <metadata
     id="metadata3325">
    <rdf:RDF>
      <cc:Work
         rdf:about="">
        <dc:format>image/svg+xml</dc:format>
        <dc:type
           rdf:resource="http://purl.org/dc/dcmitype/StillImage" />
        <dc:title />
      </cc:Work>
    </rdf:RDF>
  </metadata>
  <g
     inkscape:label="Layer 1"
     inkscape:groupmode="layer"
     id="layer1"
     transform="translate(0,27.6378)">
    <g
       id="g862">
      <rect
         style="fill:#f2f2f2;fill-opacity:1;stroke:none;stroke-width:1.36930633"
         id="rect854"
         width="1920"
         height="300"
         x="0"
         y="-27.637817" />
      <rect
         y="272.36221"
         x="0"
         height="780"
         width="1920"
         id="rect3328"
         style="fill:#0d0d0d;fill-opacity:1;stroke:none;stroke-width:2.2079401" />
    </g>
    <text
       transform="scale(1.0000015,0.99999847)"
       id="text3002-3"
       y="183.75775"
       x="640.56653"
       style="font-style:normal;font-variant:normal;font-weight:bold;font-stretch:normal;font-size:48px;line-height:0%;font-family:'Liberation Sans';-inkscape-font-specification:'Liberation Sans, Bold';font-variant-ligatures:normal;font-variant-caps:normal;font-variant-numeric:normal;font-feature-settings:normal;text-align:start;letter-spacing:0px;word-spacing:0px;writing-mode:lr-tb;text-anchor:start;fill:#000000;fill-opacity:1;stroke:none;stroke-width:2.25;"
       xml:space="preserve"><tspan
         y="183.75775"
         x="640.56653"
         sodipodi:role="line"
         style="font-style:normal;font-variant:normal;font-weight:bold;font-stretch:normal;font-size:48px;line-height:1;font-family:'Liberation Sans';-inkscape-font-specification:'Liberation Sans, Bold';font-variant-ligatures:normal;font-variant-caps:normal;font-variant-numeric:normal;font-feature-settings:normal;text-align:start;letter-spacing:2.25px;writing-mode:lr-tb;text-anchor:start;stroke-width:2.25;fill:#000000;"
         id="tspan3066-5">{{ VERSION }}{% if VERSION == 'dev' and GIT_DESC %} {{ GIT_DESC }}{% endif %}</tspan></text>
    <g
       aria-label="TM"
       style="font-style:normal;font-variant:normal;font-weight:bold;font-stretch:normal;font-size:40px;line-height:1.25;font-family:'Trebuchet MS';-inkscape-font-specification:'Trebuchet MS Bold';letter-spacing:0px;word-spacing:0px;fill:#000000;fill-opacity:1;stroke:none"
       id="text850"
       transform="matrix(2.25,0,0,2.25,-1.5e-5,-1315.4527)" />
    <text
       transform="scale(1.0000015,0.9999985)"
       id="text3002"
       y="250.34891"
       x="1826.3917"
       style="font-style:normal;font-variant:normal;font-weight:bold;font-stretch:normal;font-size:30px;line-height:0%;font-family:'Liberation Sans';-inkscape-font-specification:'Liberation Sans, Bold';font-variant-ligatures:normal;font-variant-caps:normal;font-variant-numeric:normal;font-feature-settings:normal;text-align:start;letter-spacing:0px;word-spacing:0px;writing-mode:lr-tb;text-anchor:start;fill:#d9d9d9;fill-opacity:1;stroke:none;stroke-width:2.25;"
       xml:space="preserve"><tspan
         y="250.34891"
         x="1828.6417"
         sodipodi:role="line"
         style="font-style:normal;font-variant:normal;font-weight:bold;font-stretch:normal;font-size:24px;line-height:120.00000477%;font-family:'Liberation Sans';-inkscape-font-specification:'Liberation Sans, Bold';font-variant-ligatures:normal;font-variant-caps:normal;font-variant-numeric:normal;font-feature-settings:normal;text-align:end;letter-spacing:2.25px;writing-mode:lr-tb;text-anchor:end;fill:#d9d9d9;fill-opacity:1;stroke-width:2.25;"
         id="tspan898">{% if VERSION == 'dev' %}Build: {{ DATETIME }} {{ GIT_DESC }} {{ BUILD_TAGS }}{% endif %}</tspan></text>
    <text
       xml:space="preserve"
       style="font-style:normal;font-variant:normal;font-weight:bold;font-stretch:normal;font-size:30px;line-height:0%;font-family:'Liberation Sans';-inkscape-font-specification:'Liberation Sans, Bold';font-variant-ligatures:normal;font-variant-caps:normal;font-variant-numeric:normal;font-feature-settings:normal;text-align:start;letter-spacing:0px;word-spacing:0px;writing-mode:lr-tb;text-anchor:start;fill:#cccccc;fill-opacity:1;stroke:none;stroke-width:2.25;"
       x="1039.0654"
       y="313.95645"
       id="text863"
       transform="scale(1.0000015,0.9999985)"><tspan
         id="tspan861"
         style="font-style:normal;font-variant:normal;font-weight:bold;font-stretch:normal;font-size:30px;line-height:120.00000477%;font-family:'Liberation Sans';-inkscape-font-specification:'Liberation Sans, Bold';font-variant-ligatures:normal;font-variant-caps:normal;font-variant-numeric:normal;font-feature-settings:normal;text-align:start;letter-spacing:2.25px;writing-mode:lr-tb;text-anchor:start;fill:#cccccc;fill-opacity:1;stroke-width:2.25;"
         sodipodi:role="line"
         x="1039.0654"
         y="313.95645">Released under the GNU General Public License</tspan></text>
    <text
       transform="scale(1.0000015,0.9999985)"
       id="text946"
       y="313.95645"
       x="91.566856"
       style="font-style:normal;font-variant:normal;font-weight:bold;font-stretch:normal;font-size:30px;line-height:0%;font-family:'Liberation Sans';-inkscape-font-specification:'Liberation Sans, Bold';font-variant-ligatures:normal;font-variant-caps:normal;font-variant-numeric:normal;font-feature-settings:normal;text-align:start;letter-spacing:0px;word-spacing:0px;writing-mode:lr-tb;text-anchor:start;fill:#cccccc;fill-opacity:1;stroke:none;stroke-width:2.25;"
       xml:space="preserve"><tspan
         y="313.95645"
         x="91.566856"
         sodipodi:role="line"
         style="font-style:normal;font-variant:normal;font-weight:bold;font-stretch:normal;font-size:30px;line-height:120.00000477%;font-family:'Liberation Sans';-inkscape-font-specification:'Liberation Sans, Bold';font-variant-ligatures:normal;font-variant-caps:normal;font-variant-numeric:normal;font-feature-settings:normal;text-align:start;letter-spacing:2.25px;writing-mode:lr-tb;text-anchor:start;fill:#cccccc;fill-opacity:1;stroke-width:2.25;"
         id="tspan944">Copyright © 2000-{{ YEAR }} Ryan Finnie</tspan><tspan
         y="349.95645"
         x="91.566856"
         sodipodi:role="line"
         style="font-style:normal;font-variant:normal;font-weight:bold;font-stretch:normal;font-size:30px;line-height:120.00000477%;font-family:'Liberation Sans';-inkscape-font-specification:'Liberation Sans, Bold';font-variant-ligatures:normal;font-variant-caps:normal;font-variant-numeric:normal;font-feature-settings:normal;text-align:start;letter-spacing:2.25px;writing-mode:lr-tb;text-anchor:start;fill:#cccccc;fill-opacity:1;stroke-width:2.25;"
         id="tspan956">https://www.finnix.org/</tspan></text>
    <g
       id="g866">
      <path
         inkscape:connector-curvature="0"
         id="rect862"
         d="M 24,-27.637817 H 0 V -3.6378177 A 24,24.000001 0 0 1 24,-27.637817 Z"
         style="fill:#000000;fill-opacity:1;stroke:none;stroke-width:0;stroke-miterlimit:4;stroke-dasharray:none;stroke-opacity:1" />
      <path
         style="fill:#000000;fill-opacity:1;stroke:none;stroke-width:0;stroke-miterlimit:4;stroke-dasharray:none;stroke-opacity:1"
         d="m 1896,-27.637817 h 24 v 23.9999989 a 24,24.000001 0 0 0 -24,-23.9999989 z"
         id="path868"
         inkscape:connector-curvature="0" />
      <path
         style="fill:#000000;fill-opacity:1;stroke:none;stroke-width:0;stroke-miterlimit:4;stroke-dasharray:none;stroke-opacity:1"
         d="M 24,1052.3622 H 0 v -24 a 24,24.000001 0 0 0 24,24 z"
         id="path860"
         inkscape:connector-curvature="0" />
      <path
         inkscape:connector-curvature="0"
         id="path862"
         d="m 1896,1052.3622 h 24 v -24 a 24,24.000001 0 0 1 -24,24 z"
         style="fill:#000000;fill-opacity:1;stroke:none;stroke-width:0;stroke-miterlimit:4;stroke-dasharray:none;stroke-opacity:1" />
    </g>
    <g
       id="g885">
      <g
         id="g879">
        <path
           id="path840"
           style="font-style:normal;font-variant:normal;font-weight:bold;font-stretch:normal;font-size:80.01843262px;line-height:1.25;font-family:'Trebuchet MS';-inkscape-font-specification:'Trebuchet MS Bold';letter-spacing:0px;word-spacing:0px;fill:#000000;fill-opacity:1;stroke:none;stroke-width:4.50103712"
           d="m 115.40822,75.2246 v 30.15342 h 45.2741 v 19.4283 h -45.2741 v 58.9003 H 92.551388 V 54.91718 H 177.38538 V 75.2246 Z"
           inkscape:connector-curvature="0" />
        <path
           id="path842"
           style="font-style:normal;font-variant:normal;font-weight:bold;font-stretch:normal;font-size:80.01843262px;line-height:1.25;font-family:'Trebuchet MS';-inkscape-font-specification:'Trebuchet MS Bold';letter-spacing:0px;word-spacing:0px;fill:#000000;fill-opacity:1;stroke:none;stroke-width:4.50103712"
           d="m 213.51675,53.071055 q 5.27465,0 8.96691,3.780157 3.78017,3.692273 3.78017,8.966926 0,5.274652 -3.78017,9.05481 -3.69226,3.692272 -8.96691,3.692272 -5.27465,0 -9.05482,-3.692272 -3.69226,-3.780158 -3.69226,-9.05481 0,-5.274653 3.69226,-8.966926 3.78017,-3.780157 9.05482,-3.780157 z M 202.17625,183.70662 V 107.5758 H 190.13246 V 89.554062 h 34.28524 v 94.152558 z"
           inkscape:connector-curvature="0" />
        <path
           id="path844"
           style="font-style:normal;font-variant:normal;font-weight:bold;font-stretch:normal;font-size:80.01843262px;line-height:1.25;font-family:'Trebuchet MS';-inkscape-font-specification:'Trebuchet MS Bold';letter-spacing:0px;word-spacing:0px;fill:#000000;fill-opacity:1;stroke:none;stroke-width:4.50103712"
           d="m 310.57034,183.70662 v -54.41684 q 0,-12.04378 -4.65928,-17.58217 -4.57134,-5.53838 -15.03274,-5.53838 -4.83511,0 -10.37349,2.72523 -5.45047,2.72524 -8.52736,6.76914 v 68.04302 H 249.99976 V 89.554063 h 15.82396 l 4.0439,8.791087 q 8.9669,-10.549305 26.46117,-10.549305 16.79098,0 26.46117,10.109768 9.75811,10.021837 9.75811,28.043547 v 57.75746 z"
           inkscape:connector-curvature="0" />
        <path
           id="path846"
           style="font-style:normal;font-variant:normal;font-weight:bold;font-stretch:normal;font-size:80.01843262px;line-height:1.25;font-family:'Trebuchet MS';-inkscape-font-specification:'Trebuchet MS Bold';letter-spacing:0px;word-spacing:0px;fill:#000000;fill-opacity:1;stroke:none;stroke-width:4.50103712"
           d="m 416.8546,183.70662 v -54.41684 q 0,-12.04378 -4.65927,-17.58217 -4.57137,-5.53838 -15.03277,-5.53838 -4.83509,0 -10.37349,2.72523 -5.45047,2.72524 -8.52734,6.76914 v 68.04302 H 356.284 V 89.554063 h 15.82395 l 4.04391,8.791087 q 8.9669,-10.549305 26.46117,-10.549305 16.79098,0 26.46117,10.109768 9.75811,10.021837 9.75811,28.043547 v 57.75746 z"
           inkscape:connector-curvature="0" />
        <path
           id="path882"
           d="m 479.79878,53.071055 q 5.27465,0 8.9669,3.780157 3.78018,3.692273 3.78018,8.966926 0,5.274652 -3.78018,9.05481 -3.69225,3.692272 -8.9669,3.692272 -5.27465,0 -9.05483,-3.692272 -3.69225,-3.780158 -3.69225,-9.05481 0,-5.274653 3.69225,-8.966926 3.78018,-3.780157 9.05483,-3.780157 z"
           style="font-style:normal;font-variant:normal;font-weight:bold;font-stretch:normal;font-size:80.01843262px;line-height:1.25;font-family:'Trebuchet MS';-inkscape-font-specification:'Trebuchet MS Bold';letter-spacing:0px;word-spacing:0px;fill:#0000ff;fill-opacity:1;stroke:none;stroke-width:4.50103712"
           inkscape:connector-curvature="0" />
        <path
           id="path848"
           d="M 468.45826,183.70662 V 107.5758 H 456.41449 V 89.554062 h 34.28523 v 94.152558 z"
           style="font-style:normal;font-variant:normal;font-weight:bold;font-stretch:normal;font-size:80.01843262px;line-height:1.25;font-family:'Trebuchet MS';-inkscape-font-specification:'Trebuchet MS Bold';letter-spacing:0px;word-spacing:0px;fill:#000000;fill-opacity:1;stroke:none;stroke-width:4.50103712"
           inkscape:connector-curvature="0" />
        <path
           id="path850"
           style="font-style:normal;font-variant:normal;font-weight:bold;font-stretch:normal;font-size:80.01843262px;line-height:1.25;font-family:'Trebuchet MS';-inkscape-font-specification:'Trebuchet MS Bold';letter-spacing:0px;word-spacing:0px;fill:#000000;fill-opacity:1;stroke:none;stroke-width:4.50103712"
           d="m 576.76449,183.70662 -24.17548,-30.68089 -21.71399,30.68089 h -26.02163 l 36.13138,-48.17516 -33.23032,-45.977398 h 25.23042 l 19.86786,28.746858 22.15354,-28.746858 h 25.05461 l -36.13138,45.977398 39.472,48.17516 z"
           inkscape:connector-curvature="0" />
        <g
           transform="matrix(10.629921,0,0,10.629921,-332.64837,-127.67272)"
           id="text5173"
           style="font-style:normal;font-variant:normal;font-weight:bold;font-stretch:normal;font-size:2.82222223px;line-height:6.61458302px;font-family:'Trebuchet MS';-inkscape-font-specification:'Trebuchet MS Bold';letter-spacing:-0.76729167px;word-spacing:0px;fill:#000000;fill-opacity:1;stroke:none;stroke-width:0.26458332"
           aria-label="®">
          <path
             id="path872"
             style="fill:#000000;stroke-width:0.26458332"
             d="m 87.210428,17.222352 q -0.166743,0 -0.310059,0.06063 -0.143316,0.05926 -0.263205,0.179145 -0.11989,0.11989 -0.180523,0.263206 -0.05926,0.141937 -0.05926,0.310058 0,0.166743 0.05926,0.310059 0.06063,0.141938 0.180523,0.261827 0.118511,0.118511 0.261827,0.177767 0.144694,0.05926 0.311437,0.05926 0.169498,0 0.311436,-0.05788 0.141938,-0.05926 0.261827,-0.179145 0.11989,-0.119889 0.179145,-0.261827 0.06063,-0.143316 0.06063,-0.310059 0,-0.168121 -0.06063,-0.310058 -0.05925,-0.143316 -0.179145,-0.263206 -0.121267,-0.121267 -0.264583,-0.180523 -0.141938,-0.05926 -0.30868,-0.05926 z m -0.07855,0.406521 h -0.04823 v 0.285254 h 0.04823 q 0.107487,0 0.161231,-0.03583 0.05512,-0.03721 0.05512,-0.108865 0,-0.07166 -0.05374,-0.106109 -0.05237,-0.03445 -0.162609,-0.03445 z m 0.05099,-0.190169 q 0.242534,0 0.362424,0.08268 0.119889,0.0813 0.119889,0.248047 0,0.118511 -0.07304,0.195681 -0.07166,0.07717 -0.20395,0.100597 0.0565,0.03032 0.104731,0.08544 0.04961,0.05512 0.08957,0.135048 l 0.152962,0.304547 h -0.315571 l -0.14745,-0.293523 q -0.05237,-0.107487 -0.09233,-0.151584 -0.03996,-0.04547 -0.07993,-0.04547 h -0.01654 v 0.490582 h -0.293522 v -1.15204 z m 0.02756,-0.42857 q 0.209461,0 0.389984,0.07579 0.181901,0.07579 0.332108,0.225998 0.150206,0.150206 0.22462,0.330729 0.07441,0.180523 0.07441,0.392741 0,0.209462 -0.07441,0.389985 -0.07441,0.179145 -0.22462,0.329351 -0.150207,0.150206 -0.332108,0.225998 -0.180523,0.07579 -0.389984,0.07579 -0.209462,0 -0.391363,-0.07579 -0.180523,-0.07579 -0.330729,-0.225998 -0.150207,-0.150206 -0.224621,-0.329351 -0.07441,-0.180523 -0.07441,-0.389985 0,-0.212218 0.07441,-0.392741 0.07441,-0.180523 0.224621,-0.330729 0.150206,-0.150206 0.330729,-0.225998 0.181901,-0.07579 0.391363,-0.07579 z"
             inkscape:connector-curvature="0" />
        </g>
      </g>
    </g>
  </g>
</svg>
