<?xml version="1.0" encoding="UTF-8" standalone="no"?>
<!-- Created with Inkscape (http://www.inkscape.org/) -->

<svg
   xmlns:dc="http://purl.org/dc/elements/1.1/"
   xmlns:cc="http://creativecommons.org/ns#"
   xmlns:rdf="http://www.w3.org/1999/02/22-rdf-syntax-ns#"
   xmlns:svg="http://www.w3.org/2000/svg"
   xmlns="http://www.w3.org/2000/svg"
   xmlns:sodipodi="http://sodipodi.sourceforge.net/DTD/sodipodi-0.dtd"
   xmlns:inkscape="http://www.inkscape.org/namespaces/inkscape"
   width="640"
   height="480"
   id="svg3320"
   version="1.1"
   inkscape:version="0.92.5 (2060ec1f9f, 2020-04-08)"
   sodipodi:docname="splash.svg">
  <defs
     id="defs57" />
  <sodipodi:namedview
     id="base"
     pagecolor="#ffffff"
     bordercolor="#666666"
     borderopacity="1.0"
     inkscape:pageopacity="0.0"
     inkscape:pageshadow="2"
     inkscape:zoom="1.136291"
     inkscape:cx="316.82024"
     inkscape:cy="240"
     inkscape:document-units="px"
     inkscape:current-layer="layer1"
     showgrid="false"
     inkscape:window-width="1920"
     inkscape:window-height="1053"
     inkscape:window-x="0"
     inkscape:window-y="27"
     inkscape:window-maximized="1"
     inkscape:snap-page="true">
    <sodipodi:guide
       position="-7.171875,35"
       orientation="0,640"
       id="guide2176"
       inkscape:locked="false" />
    <sodipodi:guide
       position="600.0022,-11.468388"
       orientation="-480,0"
       id="guide2178"
       inkscape:locked="false" />
    <sodipodi:guide
       position="40.632812,445"
       orientation="0,-640"
       id="guide2180"
       inkscape:locked="false" />
    <sodipodi:guide
       position="40,444.84375"
       orientation="480,0"
       id="guide2182"
       inkscape:locked="false" />
  </sodipodi:namedview>
  <metadata
     id="metadata3325">
    <rdf:RDF>
      <cc:Work
         rdf:about="">
        <dc:format>image/svg+xml</dc:format>
        <dc:type
           rdf:resource="http://purl.org/dc/dcmitype/StillImage" />
        <dc:title />
        <cc:license
           rdf:resource="http://creativecommons.org/licenses/by-sa/4.0/" />
      </cc:Work>
      <cc:License
         rdf:about="http://creativecommons.org/licenses/by-sa/4.0/">
        <cc:permits
           rdf:resource="http://creativecommons.org/ns#Reproduction" />
        <cc:permits
           rdf:resource="http://creativecommons.org/ns#Distribution" />
        <cc:requires
           rdf:resource="http://creativecommons.org/ns#Notice" />
        <cc:requires
           rdf:resource="http://creativecommons.org/ns#Attribution" />
        <cc:permits
           rdf:resource="http://creativecommons.org/ns#DerivativeWorks" />
        <cc:requires
           rdf:resource="http://creativecommons.org/ns#ShareAlike" />
      </cc:License>
    </rdf:RDF>
  </metadata>
  <g
     inkscape:label="Layer 1"
     inkscape:groupmode="layer"
     id="layer1"
     transform="translate(0,-572.3622)">
    <g
       id="g862"
       transform="matrix(0.33333333,0,0,0.44444443,0,584.64568)">
      <rect
         style="fill:#f2f2f2;fill-opacity:1;stroke:none;stroke-width:1.36930633"
         id="rect854"
         width="1920"
         height="300"
         x="0"
         y="-27.637817" />
      <rect
         y="272.36221"
         x="0"
         height="780"
         width="1920"
         id="rect3328"
         style="fill:#0d0d0d;fill-opacity:1;stroke:none;stroke-width:2.2079401" />
    </g>
    <g
       aria-label="TM"
       style="font-style:normal;font-variant:normal;font-weight:bold;font-stretch:normal;font-size:40px;line-height:1.25;font-family:'Trebuchet MS';-inkscape-font-specification:'Trebuchet MS Bold';letter-spacing:0px;word-spacing:0px;fill:#000000;fill-opacity:1;stroke:none"
       id="text850"
       transform="translate(-1e-5,4.6029781e-5)" />
    <text
       transform="scale(1.0000015,0.9999985)"
       id="text3002"
       y="695.91272"
       x="39.828064"
       style="font-style:normal;font-variant:normal;font-weight:bold;font-stretch:normal;font-size:13.33333302px;line-height:0%;font-family:'Liberation Sans';-inkscape-font-specification:'Liberation Sans, Bold';font-variant-ligatures:normal;font-variant-caps:normal;font-variant-numeric:normal;font-feature-settings:normal;text-align:start;letter-spacing:0px;word-spacing:0px;writing-mode:lr-tb;text-anchor:start;fill:#d9d9d9;fill-opacity:1;stroke:none;stroke-width:1"
       xml:space="preserve"><tspan
         y="695.91272"
         x="39.828064"
         sodipodi:role="line"
         style="font-style:normal;font-variant:normal;font-weight:bold;font-stretch:normal;font-size:10.66666698px;line-height:120.00000477%;font-family:'Liberation Sans';-inkscape-font-specification:'Liberation Sans, Bold';font-variant-ligatures:normal;font-variant-caps:normal;font-variant-numeric:normal;font-feature-settings:normal;text-align:start;letter-spacing:1px;writing-mode:lr-tb;text-anchor:start;fill:#d9d9d9;fill-opacity:1;stroke-width:1"
         id="tspan898">{% if VERSION == 'dev' %}Build: {{ DATETIME }} {{ GIT_DESC }} {{ BUILD_TAGS }}{% endif %}</tspan></text>
    <text
       transform="scale(1.0000015,0.9999985)"
       id="text946"
       y="724.18274"
       x="39.458088"
       style="font-style:normal;font-variant:normal;font-weight:bold;font-stretch:normal;font-size:13.33333302px;line-height:0%;font-family:'Liberation Sans';-inkscape-font-specification:'Liberation Sans, Bold';font-variant-ligatures:normal;font-variant-caps:normal;font-variant-numeric:normal;font-feature-settings:normal;text-align:start;letter-spacing:0px;word-spacing:0px;writing-mode:lr-tb;text-anchor:start;fill:#cccccc;fill-opacity:1;stroke:none;stroke-width:1"
       xml:space="preserve"><tspan
         y="724.18274"
         x="39.458088"
         sodipodi:role="line"
         style="font-style:normal;font-variant:normal;font-weight:bold;font-stretch:normal;font-size:13.33333302px;line-height:150%;font-family:'Liberation Sans';-inkscape-font-specification:'Liberation Sans, Bold';font-variant-ligatures:normal;font-variant-caps:normal;font-variant-numeric:normal;font-feature-settings:normal;text-align:start;letter-spacing:1px;writing-mode:lr-tb;text-anchor:start;fill:#cccccc;fill-opacity:1;stroke-width:1"
         id="tspan944">Copyright © 2000-{{ YEAR }} Ryan Finnie</tspan><tspan
         y="744.18274"
         x="39.458088"
         sodipodi:role="line"
         style="font-style:normal;font-variant:normal;font-weight:bold;font-stretch:normal;font-size:13.33333302px;line-height:150%;font-family:'Liberation Sans';-inkscape-font-specification:'Liberation Sans, Bold';font-variant-ligatures:normal;font-variant-caps:normal;font-variant-numeric:normal;font-feature-settings:normal;text-align:start;letter-spacing:1px;writing-mode:lr-tb;text-anchor:start;fill:#cccccc;fill-opacity:1;stroke-width:1"
         id="tspan956">https://www.finnix.org/</tspan></text>
    <g
       id="g882">
      <path
         inkscape:connector-curvature="0"
         id="rect862"
         d="M 10.666666,572.36221 H 0 v 10.66666 a 10.666666,10.666667 0 0 1 10.666666,-10.66666 z"
         style="fill:#000000;fill-opacity:1;stroke:none;stroke-width:0;stroke-miterlimit:4;stroke-dasharray:none;stroke-opacity:1" />
      <path
         style="fill:#000000;fill-opacity:1;stroke:none;stroke-width:0;stroke-miterlimit:4;stroke-dasharray:none;stroke-opacity:1"
         d="M 10.666666,1052.3622 H 0 v -10.6667 a 10.666666,10.666667 0 0 0 10.666666,10.6667 z"
         id="path860"
         inkscape:connector-curvature="0" />
      <path
         style="fill:#000000;fill-opacity:1;stroke:none;stroke-width:0;stroke-miterlimit:4;stroke-dasharray:none;stroke-opacity:1"
         d="M 629.33333,572.36221 H 640 v 10.66666 a 10.666666,10.666667 0 0 0 -10.66667,-10.66666 z"
         id="path868"
         inkscape:connector-curvature="0" />
      <path
         inkscape:connector-curvature="0"
         id="path862"
         d="M 629.33333,1052.3622 H 640 v -10.6667 a 10.666666,10.666667 0 0 1 -10.66667,10.6667 z"
         style="fill:#000000;fill-opacity:1;stroke:none;stroke-width:0;stroke-miterlimit:4;stroke-dasharray:none;stroke-opacity:1" />
    </g>
    <text
       transform="scale(1.0000015,0.9999985)"
       id="text3002-3"
       y="664.62555"
       x="283.56226"
       style="font-style:normal;font-variant:normal;font-weight:bold;font-stretch:normal;font-size:21.33333206px;line-height:0%;font-family:'Liberation Sans';-inkscape-font-specification:'Liberation Sans, Bold';font-variant-ligatures:normal;font-variant-caps:normal;font-variant-numeric:normal;font-feature-settings:normal;text-align:start;letter-spacing:0px;word-spacing:0px;writing-mode:lr-tb;text-anchor:start;fill:#000000;fill-opacity:1;stroke:none;stroke-width:0.99999994"
       xml:space="preserve"><tspan
         y="664.62555"
         x="283.56226"
         sodipodi:role="line"
         style="font-style:normal;font-variant:normal;font-weight:bold;font-stretch:normal;font-size:21.33333206px;line-height:1;font-family:'Liberation Sans';-inkscape-font-specification:'Liberation Sans, Bold';font-variant-ligatures:normal;font-variant-caps:normal;font-variant-numeric:normal;font-feature-settings:normal;text-align:start;letter-spacing:0.99999994px;writing-mode:lr-tb;text-anchor:start;fill:#000000;stroke-width:0.99999994"
         id="tspan3066-5">{{ VERSION }}{% if VERSION == 'dev' and GIT_DESC %} {{ GIT_DESC }}{% endif %}</tspan></text>
    <g
       id="g885"
       transform="matrix(0.44444443,0,0,0.44444443,-1.1339489,582.95457)">
      <g
         id="g879">
        <path
           id="path840"
           style="font-style:normal;font-variant:normal;font-weight:bold;font-stretch:normal;font-size:80.01843262px;line-height:1.25;font-family:'Trebuchet MS';-inkscape-font-specification:'Trebuchet MS Bold';letter-spacing:0px;word-spacing:0px;fill:#000000;fill-opacity:1;stroke:none;stroke-width:4.50103712"
           d="m 115.40822,75.2246 v 30.15342 h 45.2741 v 19.4283 h -45.2741 v 58.9003 H 92.551388 V 54.91718 H 177.38538 V 75.2246 Z"
           inkscape:connector-curvature="0" />
        <path
           id="path842"
           style="font-style:normal;font-variant:normal;font-weight:bold;font-stretch:normal;font-size:80.01843262px;line-height:1.25;font-family:'Trebuchet MS';-inkscape-font-specification:'Trebuchet MS Bold';letter-spacing:0px;word-spacing:0px;fill:#000000;fill-opacity:1;stroke:none;stroke-width:4.50103712"
           d="m 213.51675,53.071055 q 5.27465,0 8.96691,3.780157 3.78017,3.692273 3.78017,8.966926 0,5.274652 -3.78017,9.05481 -3.69226,3.692272 -8.96691,3.692272 -5.27465,0 -9.05482,-3.692272 -3.69226,-3.780158 -3.69226,-9.05481 0,-5.274653 3.69226,-8.966926 3.78017,-3.780157 9.05482,-3.780157 z M 202.17625,183.70662 V 107.5758 H 190.13246 V 89.554062 h 34.28524 v 94.152558 z"
           inkscape:connector-curvature="0" />
        <path
           id="path844"
           style="font-style:normal;font-variant:normal;font-weight:bold;font-stretch:normal;font-size:80.01843262px;line-height:1.25;font-family:'Trebuchet MS';-inkscape-font-specification:'Trebuchet MS Bold';letter-spacing:0px;word-spacing:0px;fill:#000000;fill-opacity:1;stroke:none;stroke-width:4.50103712"
           d="m 310.57034,183.70662 v -54.41684 q 0,-12.04378 -4.65928,-17.58217 -4.57134,-5.53838 -15.03274,-5.53838 -4.83511,0 -10.37349,2.72523 -5.45047,2.72524 -8.52736,6.76914 v 68.04302 H 249.99976 V 89.554063 h 15.82396 l 4.0439,8.791087 q 8.9669,-10.549305 26.46117,-10.549305 16.79098,0 26.46117,10.109768 9.75811,10.021837 9.75811,28.043547 v 57.75746 z"
           inkscape:connector-curvature="0" />
        <path
           id="path846"
           style="font-style:normal;font-variant:normal;font-weight:bold;font-stretch:normal;font-size:80.01843262px;line-height:1.25;font-family:'Trebuchet MS';-inkscape-font-specification:'Trebuchet MS Bold';letter-spacing:0px;word-spacing:0px;fill:#000000;fill-opacity:1;stroke:none;stroke-width:4.50103712"
           d="m 416.8546,183.70662 v -54.41684 q 0,-12.04378 -4.65927,-17.58217 -4.57137,-5.53838 -15.03277,-5.53838 -4.83509,0 -10.37349,2.72523 -5.45047,2.72524 -8.52734,6.76914 v 68.04302 H 356.284 V 89.554063 h 15.82395 l 4.04391,8.791087 q 8.9669,-10.549305 26.46117,-10.549305 16.79098,0 26.46117,10.109768 9.75811,10.021837 9.75811,28.043547 v 57.75746 z"
           inkscape:connector-curvature="0" />
        <path
           id="path882"
           d="m 479.79878,53.071055 q 5.27465,0 8.9669,3.780157 3.78018,3.692273 3.78018,8.966926 0,5.274652 -3.78018,9.05481 -3.69225,3.692272 -8.9669,3.692272 -5.27465,0 -9.05483,-3.692272 -3.69225,-3.780158 -3.69225,-9.05481 0,-5.274653 3.69225,-8.966926 3.78018,-3.780157 9.05483,-3.780157 z"
           style="font-style:normal;font-variant:normal;font-weight:bold;font-stretch:normal;font-size:80.01843262px;line-height:1.25;font-family:'Trebuchet MS';-inkscape-font-specification:'Trebuchet MS Bold';letter-spacing:0px;word-spacing:0px;fill:#0000ff;fill-opacity:1;stroke:none;stroke-width:4.50103712"
           inkscape:connector-curvature="0" />
        <path
           id="path848"
           d="M 468.45826,183.70662 V 107.5758 H 456.41449 V 89.554062 h 34.28523 v 94.152558 z"
           style="font-style:normal;font-variant:normal;font-weight:bold;font-stretch:normal;font-size:80.01843262px;line-height:1.25;font-family:'Trebuchet MS';-inkscape-font-specification:'Trebuchet MS Bold';letter-spacing:0px;word-spacing:0px;fill:#000000;fill-opacity:1;stroke:none;stroke-width:4.50103712"
           inkscape:connector-curvature="0" />
        <path
           id="path850"
           style="font-style:normal;font-variant:normal;font-weight:bold;font-stretch:normal;font-size:80.01843262px;line-height:1.25;font-family:'Trebuchet MS';-inkscape-font-specification:'Trebuchet MS Bold';letter-spacing:0px;word-spacing:0px;fill:#000000;fill-opacity:1;stroke:none;stroke-width:4.50103712"
           d="m 576.76449,183.70662 -24.17548,-30.68089 -21.71399,30.68089 h -26.02163 l 36.13138,-48.17516 -33.23032,-45.977398 h 25.23042 l 19.86786,28.746858 22.15354,-28.746858 h 25.05461 l -36.13138,45.977398 39.472,48.17516 z"
           inkscape:connector-curvature="0" />
        <g
           transform="matrix(10.629921,0,0,10.629921,-332.64837,-127.67272)"
           id="text5173"
           style="font-style:normal;font-variant:normal;font-weight:bold;font-stretch:normal;font-size:2.82222223px;line-height:6.61458302px;font-family:'Trebuchet MS';-inkscape-font-specification:'Trebuchet MS Bold';letter-spacing:-0.76729167px;word-spacing:0px;fill:#000000;fill-opacity:1;stroke:none;stroke-width:0.26458332"
           aria-label="®">
          <path
             id="path872"
             style="fill:#000000;stroke-width:0.26458332"
             d="m 87.210428,17.222352 q -0.166743,0 -0.310059,0.06063 -0.143316,0.05926 -0.263205,0.179145 -0.11989,0.11989 -0.180523,0.263206 -0.05926,0.141937 -0.05926,0.310058 0,0.166743 0.05926,0.310059 0.06063,0.141938 0.180523,0.261827 0.118511,0.118511 0.261827,0.177767 0.144694,0.05926 0.311437,0.05926 0.169498,0 0.311436,-0.05788 0.141938,-0.05926 0.261827,-0.179145 0.11989,-0.119889 0.179145,-0.261827 0.06063,-0.143316 0.06063,-0.310059 0,-0.168121 -0.06063,-0.310058 -0.05925,-0.143316 -0.179145,-0.263206 -0.121267,-0.121267 -0.264583,-0.180523 -0.141938,-0.05926 -0.30868,-0.05926 z m -0.07855,0.406521 h -0.04823 v 0.285254 h 0.04823 q 0.107487,0 0.161231,-0.03583 0.05512,-0.03721 0.05512,-0.108865 0,-0.07166 -0.05374,-0.106109 -0.05237,-0.03445 -0.162609,-0.03445 z m 0.05099,-0.190169 q 0.242534,0 0.362424,0.08268 0.119889,0.0813 0.119889,0.248047 0,0.118511 -0.07304,0.195681 -0.07166,0.07717 -0.20395,0.100597 0.0565,0.03032 0.104731,0.08544 0.04961,0.05512 0.08957,0.135048 l 0.152962,0.304547 h -0.315571 l -0.14745,-0.293523 q -0.05237,-0.107487 -0.09233,-0.151584 -0.03996,-0.04547 -0.07993,-0.04547 h -0.01654 v 0.490582 h -0.293522 v -1.15204 z m 0.02756,-0.42857 q 0.209461,0 0.389984,0.07579 0.181901,0.07579 0.332108,0.225998 0.150206,0.150206 0.22462,0.330729 0.07441,0.180523 0.07441,0.392741 0,0.209462 -0.07441,0.389985 -0.07441,0.179145 -0.22462,0.329351 -0.150207,0.150206 -0.332108,0.225998 -0.180523,0.07579 -0.389984,0.07579 -0.209462,0 -0.391363,-0.07579 -0.180523,-0.07579 -0.330729,-0.225998 -0.150207,-0.150206 -0.224621,-0.329351 -0.07441,-0.180523 -0.07441,-0.389985 0,-0.212218 0.07441,-0.392741 0.07441,-0.180523 0.224621,-0.330729 0.150206,-0.150206 0.330729,-0.225998 0.181901,-0.07579 0.391363,-0.07579 z"
             inkscape:connector-curvature="0" />
        </g>
      </g>
    </g>
    <g
       id="g985">
      <g
         id="g4099"
         transform="matrix(0.4442546,0,0,0.4442546,-212.99347,584.54364)">
        <g
           id="g2174"
           transform="matrix(0.99144675,0,0,0.99144675,26.620891,-239.37713)">
          <ellipse
             id="path3015"
             style="fill:none;stroke:#000000;stroke-width:0.81113327;stroke-miterlimit:4;stroke-dasharray:none;stroke-opacity:0.50196078"
             cx="1815.3867"
             cy="354.53003"
             rx="2.8711269"
             ry="2.8660591" />
          <g
             aria-label="R"
             style="font-style:normal;font-variant:normal;font-weight:bold;font-stretch:normal;font-size:4.31010675px;line-height:0%;font-family:OpenSymbol;-inkscape-font-specification:'OpenSymbol Bold';letter-spacing:0px;word-spacing:0px;fill:#000000;fill-opacity:1;stroke:none;stroke-width:0.35917556"
             id="text3793">
            <path
               inkscape:connector-curvature="0"
               d="m 1815.3172,354.17187 q 0.2686,0 0.384,-0.0999 0.1176,-0.0999 0.1176,-0.32848 0,-0.22639 -0.1176,-0.32404 -0.1154,-0.0977 -0.384,-0.0977 h -0.3595 v 0.85005 z m -0.3595,0.59038 v 1.25399 h -0.8545 v -3.31365 h 1.305 q 0.6547,0 0.9588,0.21973 0.3063,0.21973 0.3063,0.69469 0,0.32848 -0.1598,0.53932 -0.1576,0.21085 -0.4772,0.31073 0.1753,0.0399 0.313,0.18199 0.1398,0.13983 0.2818,0.42614 l 0.4639,0.94105 h -0.91 l -0.4039,-0.82342 q -0.1221,-0.24858 -0.2486,-0.33958 -0.1243,-0.091 -0.3329,-0.091 z"
               style="font-size:4.54543686px;line-height:1.25;fill:#000000;fill-opacity:0.50196078;stroke-width:0.35917556"
               id="path2208" />
          </g>
        </g>
        <g
           id="g2205"
           style="fill:#a80030;fill-opacity:0.50196078">
          <path
             transform="matrix(0.59013986,0,0,0.59013914,1688.9925,51.3637)"
             id="path2260"
             d="m 51.986,57.297 c -1.797,0.025 0.34,0.926 2.686,1.287 0.648,-0.506 1.236,-1.018 1.76,-1.516 -1.461,0.358 -2.948,0.366 -4.446,0.229"
             inkscape:connector-curvature="0"
             style="fill:#a80030;fill-opacity:0.50196078" />
          <path
             transform="matrix(0.59013986,0,0,0.59013914,1688.9925,51.3637)"
             id="path2262"
             d="m 61.631,54.893 c 1.07,-1.477 1.85,-3.094 2.125,-4.766 -0.24,1.192 -0.887,2.221 -1.496,3.307 -3.359,2.115 -0.316,-1.256 -0.002,-2.537 -3.612,4.546 -0.496,2.726 -0.627,3.996"
             inkscape:connector-curvature="0"
             style="fill:#a80030;fill-opacity:0.50196078" />
          <path
             transform="matrix(0.59013986,0,0,0.59013914,1688.9925,51.3637)"
             id="path2264"
             d="m 65.191,45.629 c 0.217,-3.236 -0.637,-2.213 -0.924,-0.978 0.335,0.174 0.6,2.281 0.924,0.978"
             inkscape:connector-curvature="0"
             style="fill:#a80030;fill-opacity:0.50196078" />
          <path
             transform="matrix(0.59013986,0,0,0.59013914,1688.9925,51.3637)"
             id="path2266"
             d="m 45.172,1.399 c 0.959,0.172 2.072,0.304 1.916,0.533 1.049,-0.23 1.287,-0.442 -1.916,-0.533"
             inkscape:connector-curvature="0"
             style="fill:#a80030;fill-opacity:0.50196078" />
          <path
             transform="matrix(0.59013986,0,0,0.59013914,1688.9925,51.3637)"
             id="path2268"
             d="M 47.088,1.932 46.41,2.072 47.041,2.016 47.088,1.932"
             inkscape:connector-curvature="0"
             style="fill:#a80030;fill-opacity:0.50196078" />
          <path
             transform="matrix(0.59013986,0,0,0.59013914,1688.9925,51.3637)"
             id="path2270"
             d="m 76.992,46.856 c 0.107,2.906 -0.85,4.316 -1.713,6.812 l -1.553,0.776 c -1.271,2.468 0.123,1.567 -0.787,3.53 -1.984,1.764 -6.021,5.52 -7.313,5.863 -0.943,-0.021 0.639,-1.113 0.846,-1.541 -2.656,1.824 -2.131,2.738 -6.193,3.846 L 60.16,65.878 C 50.142,70.591 36.226,61.251 36.409,48.507 c -0.107,0.809 -0.304,0.607 -0.526,0.934 -0.517,-6.557 3.028,-13.143 9.007,-15.832 5.848,-2.895 12.704,-1.707 16.893,2.197 -2.301,-3.014 -6.881,-6.209 -12.309,-5.91 -5.317,0.084 -10.291,3.463 -11.951,7.131 -2.724,1.715 -3.04,6.611 -4.227,7.507 -1.597,11.737 3.004,16.808 10.787,22.773 1.225,0.826 0.345,0.951 0.511,1.58 -2.586,-1.211 -4.954,-3.039 -6.901,-5.277 1.033,1.512 2.148,2.982 3.589,4.137 -2.438,-0.826 -5.695,-5.908 -6.646,-6.115 4.203,7.525 17.052,13.197 23.78,10.383 -3.113,0.115 -7.068,0.064 -10.566,-1.229 -1.469,-0.756 -3.467,-2.322 -3.11,-2.615 9.182,3.43 18.667,2.598 26.612,-3.771 2.021,-1.574 4.229,-4.252 4.867,-4.289 -0.961,1.445 0.164,0.695 -0.574,1.971 2.014,-3.248 -0.875,-1.322 2.082,-5.609 l 1.092,1.504 c -0.406,-2.696 3.348,-5.97 2.967,-10.234 0.861,-1.304 0.961,1.403 0.047,4.403 1.268,-3.328 0.334,-3.863 0.66,-6.609 0.352,0.923 0.814,1.904 1.051,2.878 -0.826,-3.216 0.848,-5.416 1.262,-7.285 -0.408,-0.181 -1.275,1.422 -1.473,-2.377 0.029,-1.65 0.459,-0.865 0.625,-1.271 -0.324,-0.186 -1.174,-1.451 -1.691,-3.877 0.375,-0.57 1.002,1.478 1.512,1.562 -0.328,-1.929 -0.893,-3.4 -0.916,-4.88 -1.49,-3.114 -0.527,0.415 -1.736,-1.337 -1.586,-4.947 1.316,-1.148 1.512,-3.396 2.404,3.483 3.775,8.881 4.404,11.117 -0.48,-2.726 -1.256,-5.367 -2.203,-7.922 0.73,0.307 -1.176,-5.609 0.949,-1.691 C 83.519,18.706 76.074,10.902 69.225,7.24 70.063,8.007 71.121,8.97 70.741,9.121 67.335,7.093 67.934,6.935 67.446,6.078 64.671,4.949 64.489,6.169 62.651,6.08 57.421,3.306 56.413,3.601 51.6,1.863 l 0.219,1.023 c -3.465,-1.154 -4.037,0.438 -7.782,0.004 -0.228,-0.178 1.2,-0.644 2.375,-0.815 -3.35,0.442 -3.193,-0.66 -6.471,0.122 0.808,-0.567 1.662,-0.942 2.524,-1.424 -2.732,0.166 -6.522,1.59 -5.352,0.295 -4.456,1.988 -12.37,4.779 -16.811,8.943 l -0.14,-0.933 c -2.035,2.443 -8.874,7.296 -9.419,10.46 l -0.544,0.127 c -1.059,1.793 -1.744,3.825 -2.584,5.67 -1.385,2.36 -2.03,0.908 -1.833,1.278 -2.724,5.523 -4.077,10.164 -5.246,13.97 0.833,1.245 0.02,7.495 0.335,12.497 -1.368,24.704 17.338,48.69 37.785,54.228 2.997,1.072 7.454,1.031 11.245,1.141 -4.473,-1.279 -5.051,-0.678 -9.408,-2.197 -3.143,-1.48 -3.832,-3.17 -6.058,-5.102 l 0.881,1.557 c -4.366,-1.545 -2.539,-1.912 -6.091,-3.037 l 0.941,-1.229 C 28.751,98.334 26.418,96.056 25.78,94.795 l -1.548,0.061 c -1.86,-2.295 -2.851,-3.949 -2.779,-5.23 l -0.5,0.891 c -0.567,-0.973 -6.843,-8.607 -3.587,-6.83 -0.605,-0.553 -1.409,-0.9 -2.281,-2.484 l 0.663,-0.758 c -1.567,-2.016 -2.884,-4.6 -2.784,-5.461 0.836,1.129 1.416,1.34 1.99,1.533 -3.957,-9.818 -4.179,-0.541 -7.176,-9.994 L 8.412,66.472 C 7.926,65.74 7.631,64.945 7.24,64.165 l 0.276,-2.75 C 4.667,58.121 6.719,47.409 7.13,41.534 7.415,39.145 9.508,36.602 11.1,32.614 l -0.97,-0.167 c 1.854,-3.234 10.586,-12.988 14.63,-12.486 1.959,-2.461 -0.389,-0.009 -0.772,-0.629 4.303,-4.453 5.656,-3.146 8.56,-3.947 3.132,-1.859 -2.688,0.725 -1.203,-0.709 5.414,-1.383 3.837,-3.144 10.9,-3.846 0.745,0.424 -1.729,0.655 -2.35,1.205 4.511,-2.207 14.275,-1.705 20.617,1.225 7.359,3.439 15.627,13.605 15.953,23.17 l 0.371,0.1 c -0.188,3.802 0.582,8.199 -0.752,12.238 l 0.908,-1.912"
             inkscape:connector-curvature="0"
             style="fill:#a80030;fill-opacity:0.50196078" />
          <path
             transform="matrix(0.59013986,0,0,0.59013914,1688.9925,51.3637)"
             id="path2272"
             d="m 32.372,59.764 -0.252,1.26 c 1.181,1.604 2.118,3.342 3.626,4.596 -1.085,-2.118 -1.891,-2.993 -3.374,-5.856"
             inkscape:connector-curvature="0"
             style="fill:#a80030;fill-opacity:0.50196078" />
          <path
             transform="matrix(0.59013986,0,0,0.59013914,1688.9925,51.3637)"
             id="path2274"
             d="m 35.164,59.654 c -0.625,-0.691 -0.995,-1.523 -1.409,-2.352 0.396,1.457 1.207,2.709 1.962,3.982 l -0.553,-1.63"
             inkscape:connector-curvature="0"
             style="fill:#a80030;fill-opacity:0.50196078" />
          <path
             transform="matrix(0.59013986,0,0,0.59013914,1688.9925,51.3637)"
             id="path2276"
             d="m 84.568,48.916 -0.264,0.662 c -0.484,3.438 -1.529,6.84 -3.131,9.994 1.77,-3.328 2.915,-6.968 3.395,-10.656"
             inkscape:connector-curvature="0"
             style="fill:#a80030;fill-opacity:0.50196078" />
          <path
             transform="matrix(0.59013986,0,0,0.59013914,1688.9925,51.3637)"
             id="path2278"
             d="M 45.527,0.537 C 46.742,0.092 48.514,0.293 49.803,0 48.123,0.141 46.451,0.225 44.8,0.438 l 0.727,0.099"
             inkscape:connector-curvature="0"
             style="fill:#a80030;fill-opacity:0.50196078" />
          <path
             transform="matrix(0.59013986,0,0,0.59013914,1688.9925,51.3637)"
             id="path2280"
             d="m 2.872,23.219 c 0.28,2.592 -1.95,3.598 0.494,1.889 1.31,-2.951 -0.512,-0.815 -0.494,-1.889"
             inkscape:connector-curvature="0"
             style="fill:#a80030;fill-opacity:0.50196078" />
          <path
             transform="matrix(0.59013986,0,0,0.59013914,1688.9925,51.3637)"
             id="path2282"
             d="M 0,35.215 C 0.563,33.487 0.665,32.449 0.88,31.449 -0.676,33.438 0.164,33.862 0,35.215"
             inkscape:connector-curvature="0"
             style="fill:#a80030;fill-opacity:0.50196078" />
        </g>
        <g
           id="g4006"
           transform="matrix(0.45362967,0,0,0.45362967,1501.1454,-6.2414106)">
          <path
             inkscape:connector-curvature="0"
             id="path3979"
             d="m 325.49644,267.89023 c -3.02206,-0.71242 -6.12683,-3.30666 -7.5075,-6.27299 l -0.76183,-1.63679 -1.77239,-0.003 c -0.97481,-0.002 -3.17747,-0.18844 -4.89479,-0.41541 -7.84849,-1.03729 -9.06117,-1.01544 -16.1962,0.2917 -1.95184,0.35757 -3.97859,0.65012 -4.5039,0.65012 -0.82125,0 -1.02541,0.13057 -1.4568,0.93162 -0.72599,1.34807 -2.85488,3.23791 -4.4916,3.98722 -4.4192,2.02318 -10.33972,1.34929 -17.59557,-2.00276 -3.2767,-1.51377 -4.83927,-1.94442 -9.14917,-2.52156 -7.58603,-1.01584 -8.45216,-1.18742 -10.13102,-2.00698 -3.42891,-1.6739 -4.22169,-4.97331 -2.43956,-10.15315 0.62968,-1.8302 0.65631,-3.10915 0.13516,-6.49065 -0.64767,-4.20244 -0.48232,-5.61981 0.89486,-7.67039 0.98819,-1.47136 2.41291,-2.40243 5.51622,-3.60485 2.78865,-1.08053 3.84547,-1.8705 5.4335,-4.06159 0.58367,-0.80531 1.47628,-1.90118 1.98357,-2.43526 l 0.92236,-0.97106 -0.18366,-1.95988 c -0.86003,-9.17786 4.80872,-22.78363 14.8372,-35.61125 4.8146,-6.15845 6.28183,-8.5817 7.60136,-12.55415 1.59458,-4.80057 1.80993,-7.75617 1.38266,-18.97668 -0.26517,-6.96366 -0.0347,-9.90634 1.07631,-13.74005 2.00464,-6.91759 6.24768,-11.04524 13.26078,-12.90013 2.24864,-0.59474 3.13941,-0.68404 7.07068,-0.70889 3.62288,-0.0229 4.85822,0.0678 6.35,0.46626 8.54451,2.28215 13.03583,8.53477 14.56307,20.2741 0.25515,1.96116 0.43272,5.9627 0.48811,10.99898 0.0848,7.71302 0.10542,7.97746 0.80213,10.29756 1.28541,4.28051 3.09728,7.23962 8.74823,14.2875 7.17747,8.95176 10.70038,14.83612 12.97355,21.66981 1.49103,4.48239 1.8491,6.67927 1.83706,11.27081 -0.009,3.32359 -0.12157,4.54389 -0.59531,6.43704 -0.68884,2.75269 -0.69425,2.82338 -0.2163,2.82338 0.70951,0 2.9914,2.34695 3.55445,3.65579 0.30525,0.70956 0.85518,2.56054 1.22207,4.11329 0.79419,3.36113 1.03846,3.86829 3.125,6.48823 2.98378,3.74652 3.65814,6.3975 2.24208,8.81382 -0.94471,1.61202 -2.19087,2.49051 -6.93999,4.89239 -5.69352,2.87951 -7.29459,3.9894 -10.58332,7.33653 -4.0941,4.16678 -6.96299,5.99951 -10.81243,6.9073 -1.78659,0.42133 -4.25439,0.46555 -5.78907,0.10377 z m 7.26739,-2.5616 c 2.77597,-1.07791 4.85154,-2.59677 8.36125,-6.11855 3.57592,-3.58824 4.54355,-4.2628 10.10098,-7.04177 6.2487,-3.12461 7.15086,-3.90026 7.13794,-6.137 -0.008,-1.39843 -0.70471,-2.78783 -2.57834,-5.14242 -2.10282,-2.6426 -2.56524,-3.59949 -3.35524,-6.94291 -0.82003,-3.4705 -1.27008,-4.5618 -2.33504,-5.66214 -1.52121,-1.57173 -5.6511,-2.2481 -6.69352,-1.09622 -1.79076,1.97876 -6.55147,4.21917 -8.93856,4.20652 -3.06607,-0.0162 -5.68967,-2.92435 -6.37993,-7.07179 -0.10293,-0.61846 -0.25474,-1.12448 -0.33736,-1.12448 -0.53312,0 -1.94543,1.51206 -2.63357,2.81958 -1.0732,2.03915 -1.59449,4.27133 -1.9367,8.29292 -0.64437,7.57246 -0.77168,8.34186 -2.21654,13.39606 -2.1781,7.6191 -2.44984,10.47265 -1.25462,13.17463 0.60789,1.37426 2.35098,3.34413 3.69309,4.1736 2.3954,1.48044 5.98846,1.58553 9.36616,0.27397 z m -52.17084,-0.85778 c 4.49394,-0.85226 7.16283,-3.84103 7.20433,-8.06777 0.0287,-2.91952 -1.36195,-5.45261 -6.68151,-12.17083 -3.05028,-3.85228 -3.65829,-4.81748 -7.56789,-12.01382 -3.49925,-6.44097 -5.91045,-8.74663 -9.15411,-8.75339 -2.33063,-0.005 -3.32428,0.70295 -6.125,4.36303 -2.51266,3.28364 -3.1104,3.72481 -6.85889,5.0621 -2.60923,0.93087 -3.52739,1.5376 -4.28607,2.83228 -0.91609,1.56332 -1.03476,2.83 -0.5599,5.9767 0.56973,3.77545 0.52553,5.19081 -0.24518,7.85036 -0.37501,1.2941 -0.66146,2.96288 -0.66146,3.8536 0,3.5436 1.33917,4.29444 9.39271,5.26628 6.00979,0.72522 8.29679,1.2957 11.98169,2.98877 5.84503,2.68555 9.85076,3.51636 13.56128,2.81269 z m 24.41129,-10.9754 c 4.34365,-0.65472 9.07781,-2.49522 12.64632,-4.9165 l 1.48182,-1.00545 0.70769,-2.55098 c 0.80885,-2.91569 1.09117,-4.83031 1.48199,-10.0507 0.3421,-4.56954 0.80194,-6.79673 1.89118,-9.15988 0.89155,-1.93425 2.43844,-3.61007 4.03517,-4.37149 0.73821,-0.35203 0.92279,-0.60974 1.03479,-1.44475 0.57071,-4.25498 5.24248,-4.90314 11.69803,-1.62297 3.50183,1.77934 4.89203,3.28157 4.8938,5.28816 8e-4,1.02279 0.0608,1.12448 0.66244,1.12448 0.62768,0 0.66146,-0.0765 0.66146,-1.49811 0,-2.72596 -1.82271,-4.74576 -6.41694,-7.11078 l -1.95995,-1.00894 0.12116,-3.35532 c 0.17537,-4.85638 -0.60042,-8.4259 -2.78708,-12.82372 -1.91138,-3.84422 -6.58826,-9.92188 -7.63507,-9.92188 -0.66569,0 -0.39963,0.48838 1.25833,2.30983 2.89378,3.17913 4.90744,6.78071 6.20869,11.10471 0.57716,1.91789 0.7057,2.88768 0.72941,5.50317 0.0328,3.61619 -0.57218,6.39844 -1.32819,6.10833 -0.22245,-0.0854 -0.85551,-0.15521 -1.4068,-0.15521 h -1.00235 l -0.72125,-2.97656 c -1.09803,-4.53143 -2.53631,-8.18688 -5.95994,-15.14739 -4.09207,-8.31951 -7.23971,-16.14031 -9.27739,-23.05108 -0.46675,-1.58295 -0.88232,-2.91756 -0.92351,-2.9658 -0.0412,-0.0482 -0.58699,0.40926 -1.2129,1.01669 -1.1233,1.09012 -2.86687,2.11615 -4.70902,2.7711 -0.51969,0.18476 -1.94167,0.94275 -3.15996,1.68442 -3.32904,2.02665 -4.7736,2.51516 -7.46061,2.52296 -2.70996,0.008 -4.27062,-0.62864 -6.5962,-2.69019 -0.80037,-0.7095 -2.11006,-1.72943 -2.91042,-2.26652 l -1.45521,-0.97652 -0.0687,0.73267 c -0.57301,6.11086 -2.97285,13.34399 -8.14938,24.56228 -4.20742,9.11808 -5.37001,12.72215 -6.18226,19.16519 l -0.4503,3.57188 -0.97863,-1.98438 c -1.68091,-3.40838 -2.12992,-6.99642 -1.39065,-11.1125 0.53956,-3.0041 1.49239,-5.55917 3.8408,-10.29938 1.99677,-4.03042 2.48009,-5.29137 1.88792,-4.92539 -0.13552,0.0838 -1.02288,1.48977 -1.97191,3.12447 -7.41275,12.76849 -8.17646,22.04972 -2.32879,28.30134 0.64812,0.69291 2.68051,2.26046 4.51641,3.48346 7.20906,4.80237 11.31541,9.38734 11.84088,13.22102 0.30006,2.18922 -1.11787,3.90093 -3.55416,4.29051 -0.61175,0.0978 -1.11227,0.21699 -1.11227,0.26481 0,0.13804 3.65001,4.95548 4.13955,5.46358 0.697,0.7234 5.08432,2.77862 6.92373,3.24339 3.8318,0.9682 6.62145,1.11076 10.44827,0.53394 z m -3.538,-77.10278 c 0.88908,-0.27671 2.71539,-1.16374 4.05847,-1.97117 1.34307,-0.80743 3.1304,-1.72211 3.97184,-2.03263 1.74817,-0.64512 3.35463,-1.79582 4.50872,-3.22954 0.59896,-0.74408 0.82546,-1.33788 0.913,-2.39347 0.10238,-1.23456 0.0292,-1.50753 -0.60661,-2.26317 -0.8312,-0.98783 -1.9878,-1.62604 -4.69344,-2.58986 -1.05388,-0.37541 -2.98771,-1.25134 -4.2974,-1.9465 -3.41721,-1.81379 -4.80707,-2.20981 -7.24254,-2.06367 -2.41779,0.14507 -4.20048,0.95346 -6.22934,2.82479 -0.73964,0.6822 -2.05917,1.75896 -2.93229,2.39277 -3.24629,2.35655 -3.73887,3.23442 -2.91781,5.19998 0.54196,1.29737 1.45598,2.25914 3.31468,3.48782 0.80037,0.52908 2.3396,1.71425 3.42052,2.63371 2.88757,2.45625 5.34476,3.00523 8.7322,1.95094 z m -6.19959,-3.83313 c -0.7276,-0.17737 -2.06909,-0.7207 -2.98108,-1.20739 -2.08975,-1.11522 -5.08871,-3.89191 -5.08871,-4.71154 0,-0.82241 0.66921,-0.7477 1.20809,0.13487 0.70015,1.14668 3.23704,3.18199 5.12446,4.11126 3.25894,1.60454 7.07825,1.19069 11.54236,-1.2507 2.06694,-1.13039 5.18147,-3.40981 5.6091,-4.10511 0.41155,-0.66915 1.12224,-0.70975 1.12224,-0.0641 0,1.56483 -7.29977,6.08645 -11.37708,7.04718 -2.02155,0.47634 -3.34435,0.48802 -5.15938,0.0456 z m -0.84504,-11.44472 c -0.22878,-0.59619 0.65382,-1.19491 1.61842,-1.09787 1.12852,0.11353 1.10157,0.56896 -0.0641,1.08326 -1.25758,0.55484 -1.34669,0.55568 -1.55431,0.0146 z m 6.59973,-0.0234 c -1.01377,-0.50838 -1.13231,-1.12896 -0.21566,-1.12896 1.09274,0 2.04891,0.48498 1.95166,0.98992 -0.1184,0.61484 -0.69512,0.66103 -1.736,0.13904 z m -11.03717,-0.0855 c 0.0866,-0.14015 -0.0815,-0.55859 -0.37351,-0.92987 -0.84846,-1.07865 -1.25316,-3.35679 -0.85846,-4.83252 0.40744,-1.52338 0.96293,-2.16023 1.88424,-2.16023 1.2109,0 2.12422,1.441 2.36072,3.72462 l 0.15282,1.47565 1.42251,-0.62526 1.42251,-0.62527 -0.12099,-2.09005 c -0.23886,-4.1261 -2.48731,-7.15136 -5.31507,-7.15136 -1.22352,0 -1.41394,0.0929 -2.58022,1.25921 -1.6671,1.66709 -2.19123,3.38797 -2.06054,6.76527 0.0763,1.97286 0.23171,2.72204 0.83094,4.00689 0.40537,0.86918 0.92576,1.78885 1.15641,2.04372 0.39865,0.4405 0.45646,0.43698 1.17026,-0.0713 0.41299,-0.29408 0.82177,-0.64935 0.90838,-0.78951 z m 23.93671,-0.60872 c 2.47525,-5.02795 0.76332,-11.45617 -3.6027,-13.52798 -1.20674,-0.57264 -3.60535,-0.514 -4.84504,0.11844 -2.57465,1.31349 -4.28193,4.30341 -4.46662,7.82226 l -0.11272,2.14751 1.75604,0.57648 c 0.96583,0.31706 1.81308,0.57647 1.88278,0.57647 0.0697,0 0.12674,-0.45464 0.12674,-1.01031 0,-4.0314 2.9371,-6.489 4.97761,-4.16499 1.52892,1.74135 1.66402,5.45812 0.253,6.96009 -0.30712,0.32691 -0.47152,0.68125 -0.36535,0.78742 0.18746,0.18745 3.0211,1.34044 3.38639,1.3779 0.10002,0.0103 0.55446,-0.73823 1.00987,-1.66329 z"
             style="fill:#000000;fill-opacity:0.50196078;stroke-width:0.26458332" />
          <path
             transform="scale(0.26458333)"
             inkscape:connector-curvature="0"
             id="path3996"
             d="m 1036.4604,998.01835 c -4.7143,-1.09256 -15.4615,-4.88951 -23.8826,-8.43769 -16.55511,-6.97533 -27.06543,-9.61024 -52.54597,-13.17313 -30.6826,-4.29028 -33.84227,-7.83739 -28.5697,-32.07279 2.86821,-13.18374 2.96909,-15.38106 1.35972,-29.61617 -2.62127,-23.18551 -0.25198,-27.02935 21.89157,-35.51613 8.11821,-3.11139 10.88644,-5.12249 17.14286,-12.45417 4.1037,-4.80897 10.18658,-11.57387 13.51752,-15.0331 6.00545,-6.23675 6.12595,-6.28448 14.3629,-5.68867 14.0187,1.01402 20.738,8.29693 39.7166,43.04814 4.6396,8.49544 15.6427,25.11558 24.4513,36.93364 17.5381,23.53004 21.8683,31.17217 22.9126,40.43722 1.3532,12.00599 -6.1308,24.44384 -17.8193,29.61428 -8.0651,3.56766 -21.9803,4.40532 -32.5375,1.95857 z"
             style="fill:#ffcd00;fill-opacity:0.50196078;stroke:#000000;stroke-width:0;stroke-miterlimit:4;stroke-dasharray:none;stroke-opacity:1" />
          <path
             transform="scale(0.26458333)"
             inkscape:connector-curvature="0"
             id="path3998"
             d="m 1227.9163,1003.4884 c -6.9492,-2.5437 -14.2733,-9.36381 -18.2594,-17.00286 -4.5726,-8.76301 -3.7262,-20.06129 3.692,-49.28572 4.4228,-17.42399 6.8724,-30.80855 8.0834,-44.16757 2.5,-27.57909 5.9985,-39.02149 14.2002,-46.44392 2.7598,-2.49755 2.8599,-2.45672 3.7337,1.52256 2.8112,12.80213 8.5798,21.18406 17.2052,24.99948 5.1596,2.28237 7.1868,2.47818 12.7497,1.2315 7.9246,-1.77593 21.4744,-8.4221 27.4898,-13.48372 5.2669,-4.43185 11.5062,-4.69822 19.9771,-0.85287 7.4183,3.3675 10.8595,8.76953 14.0441,22.04662 3.3823,14.10145 4.8171,17.18113 13.8738,29.77914 9.1028,12.66198 10.7283,17.63693 7.6856,23.52092 -2.1366,4.13182 -6.2644,6.78064 -33.7087,21.63127 -11.3479,6.14054 -18.1891,11.16473 -28.5714,20.98291 -16.7389,15.82928 -24.1758,21.03412 -35.5101,24.85236 -10.1237,3.4105 -18.6152,3.6236 -26.685,0.6699 z"
             style="fill:#ffcd00;fill-opacity:0.50196078;stroke:#000000;stroke-width:0;stroke-miterlimit:4;stroke-dasharray:none;stroke-opacity:1" />
          <path
             transform="scale(0.26458333)"
             inkscape:connector-curvature="0"
             id="path4000"
             d="m 1116.4604,664.96769 c -2.3571,-1.19189 -10.3929,-6.82004 -17.8571,-12.50699 -14.0455,-10.70107 -19.6577,-18.1595 -17.8797,-23.76152 0.9941,-3.13186 25.9125,-23.89835 33.6873,-28.07428 3.4407,-1.84805 7.8942,-2.63182 14.9066,-2.62342 8.8387,0.0106 11.3273,0.68347 21.4286,5.7938 6.2857,3.18001 15.2857,7.2757 20,9.10155 10.1469,3.92989 17.3109,8.90272 18.5783,12.89589 1.4439,4.54949 -1.8762,12.29953 -7.3148,17.07469 -2.7448,2.41001 -14.0331,8.87071 -25.085,14.35712 -17.7818,8.82731 -21.0199,9.97155 -28.1364,9.94276 -4.4232,-0.0179 -9.9707,-1.00771 -12.3278,-2.1996 z m 20.057,-12.83988 c 16.1396,-4.19841 42.0859,-20.50638 42.0859,-26.4522 0,-1.51883 -0.2791,-2.7615 -0.6201,-2.7615 -0.3411,0 -5.3232,3.53941 -11.0715,7.86537 -29.7593,22.39597 -50.7573,23.41367 -71.8327,3.48148 -8.1524,-7.71024 -12.9337,-8.53852 -8.3239,-1.44198 5.2678,8.10952 16.3275,15.74633 28.2767,19.52538 7.6915,2.4325 11.4476,2.39465 21.4856,-0.21655 z m -17.7965,-42.84597 c 4.6902,-2.42538 4.3693,-4.93916 -0.6305,-4.93916 -3.9179,0 -6.6699,2.51961 -5.6512,5.17408 0.9426,2.45644 1.0877,2.45102 6.2817,-0.23492 z m 25.1169,-2.70028 c -1.1111,-2.89555 -9.5203,-3.08552 -9.5203,-0.21507 0,2.39087 7.2942,5.27704 9.1183,3.60793 0.6936,-0.63469 0.8745,-2.16147 0.402,-3.39286 z"
             style="fill:#ffcd00;fill-opacity:0.50196078;stroke:#000000;stroke-width:0;stroke-miterlimit:4;stroke-dasharray:none;stroke-opacity:1" />
        </g>
      </g>
      <g
         transform="translate(10.25,18.74345)"
         id="g955">
        <path
           inkscape:connector-curvature="0"
           id="path900"
           d="m 575.13196,589.36241 c -3.71749,0.004 -7.39326,1.61384 -9.93127,4.3271 -1.99273,2.06645 -3.27141,4.78085 -3.66675,7.61921 -0.16158,1.11583 -0.12475,2.25173 -0.0508,3.37341 0.35389,3.12459 1.78847,6.11932 4.04282,8.31767 1.2124,1.21615 2.67501,2.1733 4.24459,2.85988 0.3191,0.0677 0.5435,-0.20659 0.6132,-0.48698 0.94932,-2.40184 1.89015,-4.80772 2.79318,-7.22722 0.102,-0.39681 -0.29787,-0.63211 -0.59392,-0.78328 -1.44821,-0.88324 -2.39615,-2.54904 -2.33782,-4.25513 0.0107,-2.05453 1.40969,-4.06613 3.39563,-4.66807 0.81013,-0.26881 1.69104,-0.30049 2.52947,-0.16758 1.73311,0.31502 3.2381,1.60734 3.80696,3.27492 0.30604,0.79846 0.2992,1.67648 0.20116,2.5138 -0.29845,1.50607 -1.31458,2.83479 -2.67581,3.53997 -0.30267,0.19036 -0.21693,0.56915 -0.0772,0.83558 0.92466,2.39493 1.8288,4.79814 2.77386,7.18501 0.15717,0.30885 0.54913,0.2881 0.80356,0.12309 3.37235,-1.53758 6.0721,-4.48006 7.30357,-7.97676 1.32799,-3.71978 0.93741,-8.00143 -1.03271,-11.42383 -1.94146,-3.44557 -5.43261,-5.96768 -9.31682,-6.71755 -0.92937,-0.18381 -1.8778,-0.2685 -2.8249,-0.26324 z"
           style="fill:#98cca2;fill-opacity:1;stroke:none;stroke-width:0.0742053;stroke-linecap:round;stroke-linejoin:round;stroke-miterlimit:4;stroke-dasharray:none;stroke-dashoffset:0;stroke-opacity:1" />
        <path
           inkscape:connector-curvature="0"
           id="path3773-7"
           d="m 575.249,588.61875 c -7.02449,0 -13.05769,5.01445 -14.33786,11.9208 -1.28022,6.90645 2.5543,13.75305 9.1127,16.27035 a 0.58335934,0.58337119 0 0 0 0.75357,-0.33551 l 3.27413,-8.53133 a 0.58335934,0.58337119 0 0 0 -0.33548,-0.7536 c -2.26657,-0.87015 -3.02062,-2.90152 -2.67284,-4.77279 0.34778,-1.87127 1.78211,-3.49615 4.20578,-3.49615 2.06549,0 3.82937,1.46573 4.20582,3.49615 0.37646,2.03045 -0.74462,4.03253 -2.67283,4.77279 a 0.58335934,0.58337119 0 0 0 -0.33549,0.7536 l 3.27413,8.53133 a 0.58335934,0.58337119 0 0 0 0.75357,0.33551 c 6.5584,-2.5173 10.39288,-9.3639 9.11271,-16.27035 -1.28017,-6.90635 -7.31338,-11.9208 -14.33791,-11.9208 z m 0,1.16653 c 6.47,0 12.01127,4.60604 13.19031,10.96676 1.14284,6.1655 -2.15367,12.23144 -7.85671,14.71153 l -2.87496,-7.49126 c 2.10527,-1.08963 3.3343,-3.3926 2.89389,-5.76813 -0.47762,-2.57604 -2.73255,-4.45019 -5.35253,-4.45019 -2.96252,0 -4.91689,2.1063 -5.35249,4.45019 -0.40429,2.17533 0.55096,4.57572 2.89478,5.76727 l -2.87584,7.49212 c -5.70305,-2.48009 -9.00043,-8.54603 -7.8576,-14.71153 1.17905,-6.36072 6.72119,-10.96676 13.19115,-10.96676 z"
           style="color:#000000;font-style:normal;font-variant:normal;font-weight:normal;font-stretch:normal;font-size:medium;line-height:normal;font-family:sans-serif;font-variant-ligatures:normal;font-variant-position:normal;font-variant-caps:normal;font-variant-numeric:normal;font-variant-alternates:normal;font-feature-settings:normal;text-indent:0;text-align:start;text-decoration:none;text-decoration-line:none;text-decoration-style:solid;text-decoration-color:#000000;letter-spacing:normal;word-spacing:normal;text-transform:none;writing-mode:lr-tb;direction:ltr;text-orientation:mixed;dominant-baseline:auto;baseline-shift:baseline;text-anchor:middle;white-space:normal;shape-padding:0;clip-rule:nonzero;display:inline;overflow:visible;visibility:visible;opacity:1;isolation:auto;mix-blend-mode:normal;color-interpolation:sRGB;color-interpolation-filters:linearRGB;solid-color:#000000;solid-opacity:1;vector-effect:none;fill:#89a38e;fill-opacity:1;fill-rule:nonzero;stroke:none;stroke-width:1.16661382;stroke-linecap:butt;stroke-linejoin:round;stroke-miterlimit:4;stroke-dasharray:none;stroke-dashoffset:0;stroke-opacity:1;color-rendering:auto;image-rendering:auto;shape-rendering:auto;text-rendering:auto;enable-background:accumulate" />
      </g>
    </g>
  </g>
</svg>
